<?xml version="1.0" encoding="utf-8"?>
<!-- Generator: Adobe Illustrator 21.0.0, SVG Export Plug-In . SVG Version: 6.00 Build 0)  -->
<svg version="1.1" id="Слой_1" xmlns="http://www.w3.org/2000/svg" xmlns:xlink="http://www.w3.org/1999/xlink" x="0px" y="0px"
	 viewBox="490 160 100 100" style="enable-background:new 0 0 1280 1024;" xml:space="preserve">
<style type="text/css">
	.st0{fill:#FFFFFF;stroke:url(#SVGID_1_);stroke-linecap:round;stroke-linejoin:round;stroke-miterlimit:10;}
	.st1{fill:url(#SVGID_2_);}
</style>
<radialGradient id="SVGID_1_" cx="530" cy="202.5" r="65.2505" gradientTransform="matrix(0.876 0 0 0.8692 73.7364 34.9808)" gradientUnits="userSpaceOnUse">
	<stop  offset="4.324324e-02" style="stop-color:#CCE0F4"/>
	<stop  offset="7.655574e-02" style="stop-color:#A5CBEA"/>
	<stop  offset="0.1407" style="stop-color:#5FA7D7"/>
	<stop  offset="0.1942" style="stop-color:#2B8CCA"/>
	<stop  offset="0.2344" style="stop-color:#0C7BC1"/>
	<stop  offset="0.2568" style="stop-color:#0075BE"/>
	<stop  offset="0.2786" style="stop-color:#006AAD"/>
	<stop  offset="0.3065" style="stop-color:#0061A1"/>
	<stop  offset="0.3432" style="stop-color:#005C99"/>
	<stop  offset="0.4216" style="stop-color:#005B97"/>
	<stop  offset="0.6027" style="stop-color:#1E9CD7"/>
	<stop  offset="0.6118" style="stop-color:#1B98D5"/>
	<stop  offset="0.67" style="stop-color:#0C85C8"/>
	<stop  offset="0.7289" style="stop-color:#0379C0"/>
	<stop  offset="0.7892" style="stop-color:#0075BE"/>
	<stop  offset="0.7953" style="stop-color:#037AC1"/>
	<stop  offset="0.8188" style="stop-color:#0C85C8"/>
	<stop  offset="0.8517" style="stop-color:#128CCD"/>
	<stop  offset="0.9432" style="stop-color:#138ECE"/>
</radialGradient>
<rect x="481.5" y="154.5" class="st0" width="113" height="113"/>
<g>
	
		<radialGradient id="SVGID_2_" cx="533.2234" cy="210.564" r="37.5295" gradientTransform="matrix(1 0 0 0.9921 0 0)" gradientUnits="userSpaceOnUse">
		<stop  offset="4.324324e-02" style="stop-color:#CCE0F4"/>
		<stop  offset="7.655574e-02" style="stop-color:#A5CBEA"/>
		<stop  offset="0.1407" style="stop-color:#5FA7D7"/>
		<stop  offset="0.1942" style="stop-color:#2B8CCA"/>
		<stop  offset="0.2344" style="stop-color:#0C7BC1"/>
		<stop  offset="0.2568" style="stop-color:#0075BE"/>
		<stop  offset="0.2786" style="stop-color:#006AAD"/>
		<stop  offset="0.3065" style="stop-color:#0061A1"/>
		<stop  offset="0.3432" style="stop-color:#005C99"/>
		<stop  offset="0.4216" style="stop-color:#005B97"/>
		<stop  offset="0.6027" style="stop-color:#1E9CD7"/>
		<stop  offset="0.6118" style="stop-color:#1B98D5"/>
		<stop  offset="0.67" style="stop-color:#0C85C8"/>
		<stop  offset="0.7289" style="stop-color:#0379C0"/>
		<stop  offset="0.7892" style="stop-color:#0075BE"/>
		<stop  offset="0.7953" style="stop-color:#037AC1"/>
		<stop  offset="0.8188" style="stop-color:#0C85C8"/>
		<stop  offset="0.8517" style="stop-color:#128CCD"/>
		<stop  offset="0.9432" style="stop-color:#138ECE"/>
	</radialGradient>
	<path class="st1" d="M537.4,212.4c-3.9,2.3-8,4.2-12.5,5.6c-2.2,0.6-4.6,1.2-7.2,1c-1.3-0.1-2.8-0.5-4.1-1.6
		c-1.3-1.1-1.9-2.7-2.1-4.1c0-0.4-0.1-0.7-0.1-1.1c0-0.4,0-0.8,0.1-1.2c0-0.4,0.2-0.8,0.2-1.1c0.1-0.4,0.2-0.7,0.4-1.1
		c0.6-1.4,1.5-2.4,2.5-3.4c1.9-1.8,4.1-3.1,6.3-4.1c4.5-2,9.1-3.1,14-3.4c2.4-0.2,4.9-0.1,7.4,0.2c2.5,0.3,5.1,1,7.6,2.3
		c0.6,0.3,1.2,0.8,1.8,1.2c0.6,0.4,1.2,1,1.7,1.5c1,1.2,2,2.5,2.5,4c1.2,3,1.1,6.2,0.2,9c-0.8,2.8-2.4,5.2-4.1,7.2
		c-1.7,2-3.7,3.7-5.8,5.1c-2.1,1.4-4.3,2.6-6.6,3.6c-2.3,1-4.7,1.7-7.1,2.3c-4.9,1-10.1,1.3-15.4-0.2c-2.6-0.8-5.2-1.9-7.4-3.7
		c-2.2-1.8-4-4-5.4-6.5c-0.6-1.2-1.2-2.5-1.5-3.8c-0.5-1.3-0.7-2.6-0.9-3.8c-0.2-1.3-0.3-2.5-0.4-3.8l0-2c0-0.7,0-1.3,0.1-2
		c0.2-1.3,0.3-2.6,0.7-3.9c0.2-0.6,0.3-1.3,0.6-1.9l0.8-1.9c1.2-2.4,2.7-4.7,4.7-6.5c0.2-0.2,0.5-0.5,0.7-0.7l0.8-0.6
		c0.5-0.4,1-0.8,1.5-1.2c1.1-0.7,2.2-1.5,3.3-2c2.3-1.2,4.7-2,7.1-2.6c4.8-1.1,9.8-1.4,14.6-0.7l1.8,0.3l1.8,0.4
		c1.2,0.2,2.3,0.6,3.5,0.9c2.3,0.8,4.6,1.7,6.7,3c4.2,2.4,8,6,10.3,10.4c2.2,4.5,2.8,9.6,1.9,14.3l-0.4,1.8
		c-0.1,0.6-0.4,1.1-0.6,1.7c-0.4,1.2-0.9,2.2-1.5,3.3c-0.2,0.5-0.6,1-0.9,1.5c-0.3,0.5-0.6,1-1,1.5l-1.1,1.4
		c-0.4,0.5-0.7,0.9-1.1,1.3c-6.4,6.9-15,11.1-24,12.8c-4.5,0.9-9.2,1.1-13.9,0.3c-4.6-0.8-9.2-2.7-13.1-5.8
		c-3.9-3.1-6.5-7.5-8.2-12.1c-0.3-1.2-0.8-2.3-1-3.5c-0.2-1.2-0.5-2.4-0.7-3.6l-0.4-3.6c-0.1-1.2-0.1-2.4-0.1-3.6
		c0.1-4.8,1-9.8,3.1-14.3c2-4.6,5.1-8.7,8.9-11.9c3.8-3.2,8.3-5.5,13-6.9c4.7-1.4,9.6-1.9,14.4-1.5c4.8,0.3,9.6,1.6,13.9,3.6
		c1.1,0.5,2.1,1.1,3.2,1.7c1,0.6,2,1.3,3,1.9c0.9,0.7,1.9,1.5,2.8,2.2c0.9,0.8,1.7,1.7,2.6,2.5c3.3,3.5,5.7,7.6,7.3,12
		c1.6,4.4,2.4,8.9,2.5,13.5c0,0.2-0.2,0.4-0.4,0.4c-0.2,0-0.4-0.1-0.4-0.3l0,0c-0.9-4.4-2.3-8.6-4.3-12.4c-2-3.8-4.6-7.3-7.7-10.1
		c-3.1-2.8-6.8-4.9-10.7-6.4c-3.9-1.5-8-2.2-12.1-2.3c-8.2-0.2-16.5,2.5-22.5,7.7c-3,2.6-5.4,5.8-7,9.4c-1.7,3.6-2.6,7.6-2.9,11.7
		c0,1-0.2,2.1-0.2,3.1l0.1,3.1c0.1,1,0.2,2,0.4,3.1c0,0.5,0.2,1,0.3,1.5l0.3,1.5c1,3.9,2.8,7.7,5.7,10.5c2.9,2.9,6.7,4.8,10.8,5.9
		c4.1,1,8.5,1,12.8,0.4c8.5-1.3,16.8-5.6,22.4-12.1c2.8-3.2,4.7-7.2,5.2-11.3c0-0.3,0.1-0.5,0.1-0.8l0-0.8l0-1.5
		c0-0.5-0.1-1-0.2-1.5c-0.1-0.5-0.1-1-0.2-1.5l-0.4-1.5c-0.1-0.5-0.3-0.9-0.5-1.4c-0.3-1-0.8-1.8-1.3-2.7c-2.1-3.4-5.3-6-9-7.7
		c-3.7-1.8-7.7-2.7-11.8-3c-4.1-0.3-8.2,0.1-12.1,1.2c-1.9,0.6-3.8,1.3-5.4,2.3c-0.9,0.4-1.6,1-2.4,1.5c-0.4,0.3-0.7,0.6-1.1,0.9
		l-0.5,0.4c-0.2,0.2-0.3,0.3-0.5,0.5c-1.3,1.3-2.2,2.8-2.9,4.4l-0.5,1.2c-0.2,0.4-0.2,0.9-0.3,1.3c-0.3,0.9-0.3,1.8-0.4,2.7
		c-0.1,0.4,0,0.9,0,1.4l0,1.4c0.1,0.9,0.2,1.9,0.4,2.9c0.2,0.9,0.4,1.8,0.7,2.7c0.2,0.9,0.7,1.6,1,2.4c1.7,2.9,4.3,5,7.8,5.9
		c3.4,1,7.4,0.9,11.2,0.1c1.9-0.4,3.8-1,5.7-1.7c1.8-0.8,3.6-1.6,5.3-2.7c3.2-2.1,6-4.9,7.1-7.8c0.2-0.7,0.4-1.4,0.4-2.2
		c0-0.3,0.1-0.7,0-1c0-0.2,0-0.3-0.1-0.5c0-0.2-0.1-0.3-0.1-0.4c-0.1-0.6-0.5-1.1-0.9-1.7c-0.2-0.2-0.5-0.5-0.8-0.7
		c-0.3-0.2-0.6-0.5-1-0.7c-1.4-0.9-3.2-1.5-5.1-1.9c-1.9-0.4-4-0.5-6-0.5c-4.1,0-8.3,0.7-12.2,2c-3.7,1.3-7.6,3.7-7.3,6.6
		c0,0.8,0.2,1.4,0.6,1.8c0.4,0.4,1.1,0.8,2,1c1.8,0.4,4,0.2,6.1-0.2c2.1-0.4,4.3-0.9,6.4-1.5c2.1-0.6,4.2-1.4,6.3-2.2l0,0
		c0.2-0.1,0.4,0,0.5,0.2C537.6,212.1,537.5,212.3,537.4,212.4z"/>
</g>
</svg>
